<svg width="104" height="96" viewBox="0 0 104 96" fill="none" xmlns="http://www.w3.org/2000/svg">
<path fill-rule="evenodd" clip-rule="evenodd" d="M98.2959 42.0098C99.4825 42.0098 100.444 42.9716 100.444 44.1582C100.444 45.3448 99.4825 46.3066 98.2959 46.3066H88.46C87.2734 46.3066 86.3115 45.3448 86.3115 44.1582C86.3115 42.9716 87.2734 42.0098 88.46 42.0098H98.2959Z" fill="#3BC7F5"/>
<path fill-rule="evenodd" clip-rule="evenodd" d="M100.445 44.1582C100.445 45.3448 99.4828 46.3066 98.2962 46.3066H88.4602C87.2736 46.3066 86.3118 45.3448 86.3118 44.1582H100.445Z" fill="#0DBAF3"/>
<path fill-rule="evenodd" clip-rule="evenodd" d="M53.7808 79.9263C53.7808 78.7397 54.7426 77.7778 55.9292 77.7778C57.1158 77.7778 58.0776 78.7397 58.0776 79.9263V91.252C58.0776 92.4385 57.1158 93.4004 55.9292 93.4004C54.7426 93.4004 53.7808 92.4385 53.7808 91.252V79.9263ZM53.7808 4.30469C53.7808 3.11811 54.7426 2.15625 55.9292 2.15625C57.1158 2.15625 58.0776 3.11811 58.0776 4.30469V15.2879C58.0776 16.4745 57.1158 17.4364 55.9292 17.4364C54.7426 17.4364 53.7808 16.4745 53.7808 15.2879V4.30469Z" fill="#0DBAF3"/>
<path fill-rule="evenodd" clip-rule="evenodd" d="M53.7808 79.9263C53.7808 78.7397 54.7426 77.7778 55.9292 77.7778C55.9932 77.7778 56.0566 77.7808 56.1191 77.7862V93.392C56.0566 93.3974 55.9932 93.4004 55.9292 93.4004C54.7426 93.4004 53.7808 92.4385 53.7808 91.252V79.9263ZM53.7808 4.30469C53.7808 3.11811 54.7426 2.15625 55.9292 2.15625C55.9932 2.15625 56.0566 2.15926 56.1191 2.16463V17.4278C56.0566 17.4331 55.9932 17.4362 55.9292 17.4362C54.7426 17.4362 53.7808 16.4743 53.7808 15.2877V4.30447V4.30469Z" fill="#3BC7F5"/>
<path fill-rule="evenodd" clip-rule="evenodd" d="M98.2959 42.0098C99.4825 42.0098 100.444 42.9716 100.444 44.1582C100.444 45.3448 99.4825 46.3066 98.2959 46.3066H94.8292C94.7675 44.8676 94.6255 43.433 94.4041 42.0098H98.2959Z" fill="#30ABE4"/>
<path fill-rule="evenodd" clip-rule="evenodd" d="M100.445 44.1582C100.445 45.3448 99.4827 46.3066 98.2961 46.3066H94.8294C94.7987 45.5892 94.7481 44.8728 94.6777 44.1582H100.445Z" fill="#0BA1E2"/>
<path fill-rule="evenodd" clip-rule="evenodd" d="M58.0776 86.8791V91.2516C58.0776 92.4382 57.1158 93.4001 55.9292 93.4001C54.7426 93.4001 53.7808 92.4382 53.7808 91.2516V86.8796C54.4932 86.9191 55.2097 86.9397 55.9292 86.9397C56.6487 86.9397 57.3661 86.9182 58.0776 86.8791ZM53.7808 4.30436C53.7808 3.37344 54.3729 2.58088 55.2011 2.28268C55.4469 2.27881 55.6922 2.27344 55.9391 2.27344C56.1791 2.27344 56.4178 2.27881 56.6569 2.28246C57.4853 2.58066 58.0779 3.37322 58.0779 4.30457V9.1218C57.3663 9.0827 56.6502 9.06121 55.9294 9.06121C55.2086 9.06121 54.493 9.08313 53.781 9.12266V4.30479L53.7808 4.30436Z" fill="#0BA1E2"/>
<path fill-rule="evenodd" clip-rule="evenodd" d="M56.1191 86.9373V93.3917C56.0566 93.3971 55.9932 93.4001 55.9292 93.4001C54.7426 93.4001 53.7808 92.4382 53.7808 91.2516V86.8796C54.4962 86.9194 55.2126 86.9395 55.9292 86.9397C55.9926 86.9397 56.0557 86.9376 56.1191 86.9373ZM53.7808 4.30436C53.7808 3.37344 54.3729 2.58088 55.2011 2.28268C55.4469 2.27881 55.6922 2.27344 55.9391 2.27344C55.9992 2.27344 56.059 2.27537 56.1191 2.27559V9.06336C56.0557 9.06314 55.9928 9.061 55.9292 9.061C55.209 9.061 54.4928 9.08291 53.7808 9.12244V4.30436Z" fill="#30ABE4"/>
<path fill-rule="evenodd" clip-rule="evenodd" d="M55.9291 0.367618C82.1274 0.367618 103.563 21.8026 103.563 48.0008C103.563 74.1991 82.1276 95.6341 55.9291 95.6341C35.143 95.6341 17.3578 82.1395 10.8955 63.4795H18.4904C24.6032 78.1497 39.1118 88.5313 55.9291 88.5313C78.2211 88.5313 96.4598 70.2926 96.4598 48.0006C96.4598 25.7089 78.2211 7.46992 55.9291 7.46992C35.8775 7.46992 19.1094 22.228 15.9409 41.418L18.5811 38.7778C19.9623 37.3966 22.2223 37.3966 23.6033 38.7778C24.9843 40.159 24.9843 42.419 23.6033 43.8L13.3228 54.0805C13.1144 54.2881 12.8322 54.4047 12.5381 54.4047C12.2439 54.4047 11.9618 54.2881 11.7534 54.0805L1.4731 43.8C0.0918677 42.4188 0.0920825 40.1588 1.4731 38.7778C2.85411 37.3966 5.11427 37.3966 6.49529 38.7778L8.80228 41.0848C12.1779 18.1333 32.078 0.367188 55.9287 0.367188L55.9291 0.367618Z" fill="#868686"/>
<path fill-rule="evenodd" clip-rule="evenodd" d="M14.6535 63.4803H18.4906C24.6034 78.1505 39.112 88.5322 55.9293 88.5322C78.2213 88.5322 96.46 70.2934 96.46 48.0014C96.46 25.7097 78.2213 7.47074 55.9293 7.47074C35.8777 7.47074 19.1096 22.2288 15.9411 41.4188L18.5813 38.7786C19.9625 37.3974 22.2225 37.3974 23.6035 38.7786C24.9845 40.1599 24.9845 42.4198 23.6035 43.8008L13.323 54.0813C13.1923 54.2118 13.0311 54.3076 12.854 54.36C12.677 54.4125 12.4896 54.4199 12.3089 54.3817C11.9982 52.2559 11.8423 50.1103 11.8423 47.9619C11.8423 23.6081 31.5851 3.86523 55.939 3.86523C80.2928 3.86523 100.036 23.6081 100.036 47.9619C100.036 72.3157 80.2928 92.0586 55.939 92.0586C37.0471 92.0586 20.9325 80.1773 14.6535 63.4803Z" fill="#6C6C6C"/>
<path fill-rule="evenodd" clip-rule="evenodd" d="M59.4751 51.2325V26.7487C59.4751 24.9027 57.965 23.3926 56.119 23.3926C54.2731 23.3926 52.7629 24.9027 52.7629 26.7487V54.0128L64.155 65.4048L69.8492 71.0991L72.5182 73.7681C73.8234 75.0732 75.9592 75.0732 77.2644 73.7681C78.5695 72.4629 78.5695 70.3271 77.2644 69.022L74.5954 66.3529L59.4751 51.2327V51.2325Z" fill="#6D7AEB"/>
<path fill-rule="evenodd" clip-rule="evenodd" d="M52.7629 49.2656V54.0117L64.155 65.4038L69.8492 71.098L72.5183 73.767C73.8234 75.0722 75.9592 75.0722 77.2644 73.767L52.7629 49.2656Z" fill="#959EF1"/>
<path fill-rule="evenodd" clip-rule="evenodd" d="M56.119 23.3926C54.2731 23.3926 52.7629 24.9027 52.7629 26.7487V54.0128L56.119 57.3688V23.3926Z" fill="#959EF1"/>
<path fill-rule="evenodd" clip-rule="evenodd" d="M59.4751 51.2314V42.6065C58.4972 42.302 57.4788 42.1475 56.4546 42.1484C55.1915 42.1469 53.9393 42.3823 52.7629 42.8424V54.0115L60.3749 61.6234C62.499 60.7287 64.2563 59.1392 65.3588 57.1151L59.4749 51.2312L59.4751 51.2314Z" fill="#3750D1"/>
<path fill-rule="evenodd" clip-rule="evenodd" d="M56.119 42.1543C54.9693 42.1908 53.8342 42.4236 52.7629 42.8427V50.1946H56.119V42.1543Z" fill="#5D72DA"/>
<path fill-rule="evenodd" clip-rule="evenodd" d="M52.7629 49.2656V54.0117L60.3749 61.6237C61.4385 61.1763 62.418 60.5507 63.2712 59.7738L52.7629 49.2656Z" fill="#5D72DA"/>
<path d="M58.3761 60.1531C62.7506 59.0956 65.4395 54.6922 64.382 50.3177C63.3246 45.9433 58.9211 43.2543 54.5466 44.3118C50.1722 45.3693 47.4832 49.7728 48.5407 54.1472C49.5982 58.5217 54.0017 61.2106 58.3761 60.1531Z" fill="#FAAD47"/>
<path fill-rule="evenodd" clip-rule="evenodd" d="M56.1191 60.4213C51.7743 60.2453 48.3059 56.6679 48.3059 52.28C48.3059 47.892 51.7743 44.3146 56.1191 44.1387V60.4213Z" fill="#FBBC6A"/>
</svg>
