<svg width="42" height="40" viewBox="0 0 42 40" fill="none" xmlns="http://www.w3.org/2000/svg">
<path fill-rule="evenodd" clip-rule="evenodd" d="M37.8195 4.35156C39.5713 4.35156 41 5.7927 41 7.55959V29.7299C41 30.6134 40.6878 31.3737 40.0685 31.9984L35.2526 36.8562C34.6333 37.4809 33.8796 37.7958 33.0037 37.7958H4.74287C2.99121 37.7957 1.5625 36.3546 1.5625 34.5877V7.55969C1.5625 5.7927 2.99121 4.35166 4.74297 4.35166L37.8195 4.35156Z" fill="#ECEFF1"/>
<path fill-rule="evenodd" clip-rule="evenodd" d="M37.8197 4.35156C39.5714 4.35156 41.0001 5.7927 41.0001 7.55959V29.7299C41.0001 30.6134 40.6879 31.3736 40.0686 31.9984H38.5352V7.55969C38.5352 5.7928 37.1065 4.35166 35.3547 4.35166L37.8197 4.35156Z" fill="#D1D1D6"/>
<path fill-rule="evenodd" clip-rule="evenodd" d="M34.3213 31.8606V37.5175C34.659 37.362 34.9699 37.1412 35.2528 36.8559L40.0687 31.9982C40.3515 31.713 40.5703 31.3993 40.7245 31.0586H35.1164C34.6784 31.0587 34.3213 31.4189 34.3213 31.8606Z" fill="#D1D1D6"/>
<path fill-rule="evenodd" clip-rule="evenodd" d="M38.5352 33.545L40.0686 31.9982C40.3514 31.713 40.5702 31.3993 40.7244 31.0586H38.5352V33.545Z" fill="#B1B1B5"/>
<path fill-rule="evenodd" clip-rule="evenodd" d="M1.5625 11.3527H41V7.55959C41 5.7927 39.5713 4.35156 37.8195 4.35156H4.74297C2.99131 4.35146 1.5626 5.7926 1.5626 7.55959L1.5625 11.3527Z" fill="#D1D1D6"/>
<path fill-rule="evenodd" clip-rule="evenodd" d="M38.5352 11.3527H41.0001V7.55959C41.0001 5.7927 39.5714 4.35156 37.8197 4.35156H35.3547C37.1065 4.35156 38.5352 5.7927 38.5352 7.55959V11.3527Z" fill="#B1B1B5"/>
<path fill-rule="evenodd" clip-rule="evenodd" d="M10.8574 16.2266H7.85186C7.39932 16.2266 7.03027 16.5988 7.03027 17.0553V20.087C7.03027 20.5435 7.39932 20.9157 7.85186 20.9157H10.8574C11.31 20.9157 11.679 20.5435 11.679 20.087V17.0553C11.679 16.5989 11.31 16.2266 10.8574 16.2266Z" fill="#FE646F"/>
<path fill-rule="evenodd" clip-rule="evenodd" d="M10.8574 16.2266V19.2583C10.8574 19.7147 10.4884 20.087 10.0358 20.087H7.03027C7.03027 20.5435 7.39932 20.9157 7.85186 20.9157H10.8574C11.31 20.9157 11.679 20.5435 11.679 20.087V17.0553C11.679 16.5989 11.31 16.2266 10.8574 16.2266Z" fill="#FD4755"/>
<path fill-rule="evenodd" clip-rule="evenodd" d="M7.82037 18.1381C7.74783 18.0649 7.69028 17.9781 7.65102 17.8825C7.61176 17.7869 7.59155 17.6844 7.59155 17.5809C7.59155 17.4775 7.61176 17.375 7.65102 17.2794C7.69028 17.1838 7.74783 17.0969 7.82037 17.0238C7.8929 16.9506 7.97901 16.8926 8.07378 16.853C8.16856 16.8134 8.27013 16.793 8.37272 16.793C8.4753 16.793 8.57688 16.8134 8.67165 16.853C8.76642 16.8926 8.85253 16.9506 8.92506 17.0238L9.35446 17.4569L9.78385 17.0238C9.85638 16.9506 9.94249 16.8926 10.0373 16.853C10.132 16.8134 10.2336 16.793 10.3362 16.793C10.4388 16.793 10.5404 16.8134 10.6351 16.853C10.7299 16.8926 10.816 16.9506 10.8885 17.0238C10.9611 17.0969 11.0186 17.1838 11.0579 17.2794C11.0971 17.375 11.1174 17.4775 11.1174 17.5809C11.1174 17.6844 11.0971 17.7869 11.0579 17.8825C11.0186 17.9781 10.9611 18.0649 10.8885 18.1381L10.4591 18.5712L10.8885 19.0043C10.9611 19.0775 11.0186 19.1643 11.0579 19.2599C11.0971 19.3555 11.1174 19.458 11.1174 19.5615C11.1174 19.665 11.0971 19.7674 11.0579 19.863C11.0186 19.9586 10.9611 20.0455 10.8885 20.1186C10.816 20.1918 10.7299 20.2498 10.6351 20.2894C10.5404 20.3291 10.4388 20.3494 10.3362 20.3494C10.2336 20.3494 10.132 20.3291 10.0373 20.2894C9.94249 20.2498 9.85638 20.1918 9.78385 20.1186L9.35446 19.6855L8.92506 20.1186C8.85253 20.1918 8.76642 20.2498 8.67165 20.2894C8.57688 20.3291 8.4753 20.3494 8.37272 20.3494C8.27013 20.3494 8.16856 20.3291 8.07378 20.2894C7.97901 20.2498 7.8929 20.1918 7.82037 20.1186C7.74783 20.0455 7.69028 19.9586 7.65102 19.863C7.61176 19.7674 7.59155 19.665 7.59155 19.5615C7.59155 19.458 7.61176 19.3555 7.65102 19.2599C7.69028 19.1643 7.74783 19.0775 7.82037 19.0043L8.24977 18.5712L7.82037 18.1381Z" fill="#ECEFF1"/>
<path fill-rule="evenodd" clip-rule="evenodd" d="M16.8208 16.2266H13.8152C13.3627 16.2266 12.9937 16.5988 12.9937 17.0553V20.087C12.9937 20.5435 13.3627 20.9157 13.8152 20.9157H16.8208C17.2733 20.9157 17.6424 20.5435 17.6424 20.087V17.0553C17.6424 16.5989 17.2732 16.2266 16.8208 16.2266Z" fill="#FE646F"/>
<path fill-rule="evenodd" clip-rule="evenodd" d="M16.8208 16.2266V19.2583C16.8208 19.7147 16.4518 20.087 15.9992 20.087H12.9937C12.9937 20.5435 13.3627 20.9157 13.8152 20.9157H16.8208C17.2733 20.9157 17.6424 20.5435 17.6424 20.087V17.0553C17.6424 16.5989 17.2732 16.2266 16.8208 16.2266Z" fill="#FD4755"/>
<path fill-rule="evenodd" clip-rule="evenodd" d="M14.8887 20.1186C14.8162 20.1918 14.73 20.2498 14.6353 20.2894C14.5405 20.329 14.4389 20.3494 14.3363 20.3494C14.2338 20.3494 14.1322 20.329 14.0374 20.2894C13.9426 20.2498 13.8565 20.1918 13.784 20.1186C13.7115 20.0455 13.6539 19.9586 13.6146 19.863C13.5754 19.7674 13.5552 19.665 13.5552 19.5615C13.5552 19.458 13.5754 19.3555 13.6146 19.2599C13.6539 19.1643 13.7115 19.0775 13.784 19.0043L14.2134 18.5712L13.784 18.1381C13.7115 18.0649 13.6539 17.9781 13.6146 17.8825C13.5754 17.7869 13.5552 17.6844 13.5552 17.5809C13.5552 17.4775 13.5754 17.375 13.6146 17.2794C13.6539 17.1838 13.7115 17.0969 13.784 17.0238C13.8565 16.9506 13.9426 16.8926 14.0374 16.853C14.1322 16.8134 14.2338 16.793 14.3363 16.793C14.4389 16.793 14.5405 16.8134 14.6353 16.853C14.73 16.8926 14.8162 16.9506 14.8887 17.0238L15.3181 17.4569L15.7475 17.0238C15.82 16.9506 15.9061 16.8926 16.0009 16.853C16.0957 16.8134 16.1972 16.793 16.2998 16.793C16.4024 16.793 16.504 16.8134 16.5987 16.853C16.6935 16.8926 16.7796 16.9506 16.8522 17.0238C16.9247 17.0969 16.9822 17.1838 17.0215 17.2794C17.0608 17.375 17.081 17.4775 17.081 17.5809C17.081 17.6844 17.0608 17.7869 17.0215 17.8825C16.9822 17.9781 16.9247 18.0649 16.8522 18.1381L16.4228 18.5712L16.8522 19.0043C16.9247 19.0775 16.9822 19.1643 17.0215 19.2599C17.0608 19.3555 17.081 19.458 17.081 19.5615C17.081 19.665 17.0608 19.7674 17.0215 19.863C16.9822 19.9586 16.9247 20.0455 16.8522 20.1186C16.7796 20.1918 16.6935 20.2498 16.5987 20.2894C16.504 20.329 16.4024 20.3494 16.2998 20.3494C16.1972 20.3494 16.0957 20.329 16.0009 20.2894C15.9061 20.2498 15.82 20.1918 15.7475 20.1186L15.3181 19.6855L14.8887 20.1186Z" fill="#ECEFF1"/>
<path fill-rule="evenodd" clip-rule="evenodd" d="M22.7842 16.2266H19.7786C19.3261 16.2266 18.957 16.5988 18.957 17.0553V20.087C18.957 20.5435 19.3261 20.9157 19.7786 20.9157H22.7842C23.2367 20.9157 23.6058 20.5435 23.6058 20.087V17.0553C23.6058 16.5989 23.2367 16.2266 22.7842 16.2266Z" fill="#8AC9FE"/>
<path fill-rule="evenodd" clip-rule="evenodd" d="M22.784 16.2266L22.7839 19.2583C22.7839 19.7147 22.4149 20.087 21.9624 20.087H18.9568C18.9568 20.5435 19.3258 20.9157 19.7784 20.9157H22.7839C23.2365 20.9157 23.6055 20.5435 23.6055 20.087V17.0553C23.6056 16.5989 23.2366 16.2266 22.784 16.2266Z" fill="#60B7FF"/>
<path fill-rule="evenodd" clip-rule="evenodd" d="M28.7473 16.2266H25.7417C25.2892 16.2266 24.9202 16.5988 24.9202 17.0553V20.087C24.9202 20.5435 25.2892 20.9157 25.7417 20.9157H28.7473C29.1999 20.9157 29.5689 20.5435 29.5689 20.087V17.0553C29.569 16.5989 29.1999 16.2266 28.7473 16.2266Z" fill="#8AC9FE"/>
<path fill-rule="evenodd" clip-rule="evenodd" d="M28.7474 16.2266L28.7473 19.2583C28.7473 19.7147 28.3783 20.087 27.9257 20.087H24.9202C24.9202 20.5435 25.2892 20.9157 25.7417 20.9157H28.7473C29.1999 20.9157 29.5689 20.5435 29.5689 20.087V17.0553C29.5691 16.5989 29.2 16.2266 28.7474 16.2266Z" fill="#60B7FF"/>
<path fill-rule="evenodd" clip-rule="evenodd" d="M34.7107 16.2266H31.7051C31.2526 16.2266 30.8835 16.5988 30.8835 17.0553V20.087C30.8835 20.5435 31.2526 20.9157 31.7051 20.9157H34.7107C35.1632 20.9157 35.5323 20.5435 35.5323 20.087V17.0553C35.5323 16.5989 35.1632 16.2266 34.7107 16.2266Z" fill="#8AC9FE"/>
<path fill-rule="evenodd" clip-rule="evenodd" d="M34.7107 16.2266L34.7106 19.2583C34.7106 19.7147 34.3416 20.087 33.889 20.087H30.8835C30.8835 20.5435 31.2526 20.9157 31.7051 20.9157H34.7107C35.1632 20.9157 35.5323 20.5435 35.5323 20.087V17.0553C35.5323 16.5989 35.1632 16.2266 34.7107 16.2266Z" fill="#60B7FF"/>
<path fill-rule="evenodd" clip-rule="evenodd" d="M34.7107 22.2383H31.7051C31.2526 22.2383 30.8835 22.6105 30.8835 23.067V26.0987C30.8835 26.5552 31.2526 26.9274 31.7051 26.9274H34.7107C35.1632 26.9274 35.5323 26.5551 35.5323 26.0987V23.067C35.5323 22.6105 35.1632 22.2383 34.7107 22.2383Z" fill="#8AC9FE"/>
<path fill-rule="evenodd" clip-rule="evenodd" d="M34.7107 22.2383L34.7106 25.27C34.7106 25.7265 34.3416 26.0987 33.889 26.0987H30.8835C30.8835 26.5552 31.2526 26.9274 31.7051 26.9274H34.7107C35.1632 26.9274 35.5323 26.5551 35.5323 26.0987V23.067C35.5323 22.6105 35.1632 22.2383 34.7107 22.2383Z" fill="#60B7FF"/>
<path fill-rule="evenodd" clip-rule="evenodd" d="M28.7473 22.2383H25.7417C25.2892 22.2383 24.9202 22.6105 24.9202 23.067V26.0987C24.9202 26.5552 25.2892 26.9274 25.7417 26.9274H28.7473C29.1999 26.9274 29.5689 26.5551 29.5689 26.0987V23.067C29.569 22.6105 29.1999 22.2383 28.7473 22.2383Z" fill="#8AC9FE"/>
<path fill-rule="evenodd" clip-rule="evenodd" d="M28.7474 22.2383L28.7473 25.27C28.7473 25.7265 28.3783 26.0987 27.9257 26.0987H24.9202C24.9202 26.5552 25.2892 26.9274 25.7417 26.9274H28.7473C29.1999 26.9274 29.5689 26.5551 29.5689 26.0987V23.067C29.5691 22.6105 29.2 22.2383 28.7474 22.2383Z" fill="#60B7FF"/>
<path fill-rule="evenodd" clip-rule="evenodd" d="M22.7842 22.2383H19.7786C19.3261 22.2383 18.957 22.6105 18.957 23.067V26.0987C18.957 26.5552 19.3261 26.9274 19.7786 26.9274H22.7842C23.2367 26.9274 23.6058 26.5551 23.6058 26.0987V23.067C23.6058 22.6105 23.2367 22.2383 22.7842 22.2383Z" fill="#8AC9FE"/>
<path fill-rule="evenodd" clip-rule="evenodd" d="M22.784 22.2383L22.7839 25.27C22.7839 25.7265 22.4149 26.0987 21.9624 26.0987H18.9568C18.9568 26.5552 19.3258 26.9274 19.7784 26.9274H22.7839C23.2365 26.9274 23.6055 26.5551 23.6055 26.0987V23.067C23.6056 22.6105 23.2366 22.2383 22.784 22.2383Z" fill="#60B7FF"/>
<path fill-rule="evenodd" clip-rule="evenodd" d="M16.8208 22.2383H13.8152C13.3627 22.2383 12.9937 22.6105 12.9937 23.067V26.0987C12.9937 26.5552 13.3627 26.9274 13.8152 26.9274H16.8208C17.2733 26.9274 17.6424 26.5551 17.6424 26.0987V23.067C17.6424 22.6105 17.2732 22.2383 16.8208 22.2383Z" fill="#FE646F"/>
<path fill-rule="evenodd" clip-rule="evenodd" d="M16.8208 22.2383V25.27C16.8208 25.7265 16.4518 26.0987 15.9992 26.0987H12.9937C12.9937 26.5552 13.3627 26.9274 13.8152 26.9274H16.8208C17.2733 26.9274 17.6424 26.5551 17.6424 26.0987V23.067C17.6424 22.6105 17.2732 22.2383 16.8208 22.2383Z" fill="#FD4755"/>
<path fill-rule="evenodd" clip-rule="evenodd" d="M10.8574 22.2383H7.85186C7.39932 22.2383 7.03027 22.6105 7.03027 23.067V26.0987C7.03027 26.5552 7.39932 26.9274 7.85186 26.9274H10.8574C11.31 26.9274 11.679 26.5551 11.679 26.0987V23.067C11.679 22.6105 11.31 22.2383 10.8574 22.2383Z" fill="#FE646F"/>
<path fill-rule="evenodd" clip-rule="evenodd" d="M10.8574 22.2383V25.27C10.8574 25.7265 10.4884 26.0987 10.0358 26.0987H7.03027C7.03027 26.5552 7.39932 26.9274 7.85186 26.9274H10.8574C11.31 26.9274 11.679 26.5551 11.679 26.0987V23.067C11.679 22.6105 11.31 22.2383 10.8574 22.2383Z" fill="#FD4755"/>
<path fill-rule="evenodd" clip-rule="evenodd" d="M10.8574 28.2539H7.85186C7.39932 28.2539 7.03027 28.6262 7.03027 29.0826V32.1143C7.03027 32.5708 7.39932 32.9431 7.85186 32.9431H10.8574C11.31 32.9431 11.679 32.5707 11.679 32.1143V29.0826C11.679 28.6262 11.31 28.2539 10.8574 28.2539Z" fill="#FE646F"/>
<path fill-rule="evenodd" clip-rule="evenodd" d="M10.8574 28.2539V31.2856C10.8574 31.7421 10.4884 32.1143 10.0358 32.1143H7.03027C7.03027 32.5708 7.39932 32.9431 7.85186 32.9431H10.8574C11.31 32.9431 11.679 32.5707 11.679 32.1143V29.0826C11.679 28.6262 11.31 28.2539 10.8574 28.2539Z" fill="#FD4755"/>
<path fill-rule="evenodd" clip-rule="evenodd" d="M16.8208 28.2539H13.8152C13.3627 28.2539 12.9937 28.6262 12.9937 29.0826V32.1143C12.9937 32.5708 13.3627 32.9431 13.8152 32.9431H16.8208C17.2733 32.9431 17.6424 32.5707 17.6424 32.1143V29.0826C17.6424 28.6262 17.2732 28.2539 16.8208 28.2539Z" fill="#FE646F"/>
<path fill-rule="evenodd" clip-rule="evenodd" d="M16.8208 28.2539V31.2856C16.8208 31.7421 16.4518 32.1143 15.9992 32.1143H12.9937C12.9937 32.5708 13.3627 32.9431 13.8152 32.9431H16.8208C17.2733 32.9431 17.6424 32.5707 17.6424 32.1143V29.0826C17.6424 28.6262 17.2732 28.2539 16.8208 28.2539Z" fill="#FD4755"/>
<path fill-rule="evenodd" clip-rule="evenodd" d="M22.7842 28.2539H19.7786C19.3261 28.2539 18.957 28.6262 18.957 29.0826V32.1143C18.957 32.5708 19.3261 32.9431 19.7786 32.9431H22.7842C23.2367 32.9431 23.6058 32.5707 23.6058 32.1143V29.0826C23.6058 28.6262 23.2367 28.2539 22.7842 28.2539Z" fill="#8AC9FE"/>
<path fill-rule="evenodd" clip-rule="evenodd" d="M22.784 28.2539L22.7839 31.2856C22.7839 31.7421 22.4149 32.1143 21.9624 32.1143H18.9568C18.9568 32.5708 19.3258 32.9431 19.7784 32.9431H22.7839C23.2365 32.9431 23.6055 32.5707 23.6055 32.1143V29.0826C23.6056 28.6262 23.2366 28.2539 22.784 28.2539Z" fill="#60B7FF"/>
<path fill-rule="evenodd" clip-rule="evenodd" d="M28.7473 28.2539H25.7417C25.2892 28.2539 24.9202 28.6262 24.9202 29.0826V32.1143C24.9202 32.5708 25.2892 32.9431 25.7417 32.9431H28.7473C29.1999 32.9431 29.5689 32.5707 29.5689 32.1143V29.0826C29.569 28.6262 29.1999 28.2539 28.7473 28.2539Z" fill="#8AC9FE"/>
<path fill-rule="evenodd" clip-rule="evenodd" d="M28.7474 28.2539L28.7473 31.2856C28.7473 31.7421 28.3783 32.1143 27.9257 32.1143H24.9202C24.9202 32.5708 25.2892 32.9431 25.7417 32.9431H28.7473C29.1999 32.9431 29.5689 32.5707 29.5689 32.1143V29.0826C29.5691 28.6262 29.2 28.2539 28.7474 28.2539Z" fill="#60B7FF"/>
<path fill-rule="evenodd" clip-rule="evenodd" d="M7.23188 1.67578H8.80845C9.24634 1.67578 9.60356 2.03611 9.60356 2.47781V7.3427C9.60356 7.7844 9.24643 8.14473 8.80845 8.14473H7.23188C6.79399 8.14473 6.43677 7.7845 6.43677 7.3427V2.47781C6.43677 2.03611 6.7939 1.67578 7.23188 1.67578ZM33.7541 1.67578H35.3307C35.7686 1.67578 36.1258 2.03611 36.1258 2.47781V7.3427C36.1258 7.7844 35.7687 8.14473 35.3307 8.14473H33.7541C33.3162 8.14473 32.9589 7.7845 32.9589 7.3427V2.47781C32.9589 2.03611 33.3161 1.67578 33.7541 1.67578ZM24.9133 1.67578H26.4899C26.9278 1.67578 27.285 2.03611 27.285 2.47781V7.3427C27.285 7.7844 26.9278 8.14473 26.4899 8.14473H24.9133C24.4754 8.14473 24.1182 7.7845 24.1182 7.3427V2.47781C24.1182 2.03611 24.4754 1.67578 24.9133 1.67578ZM16.0726 1.67578H17.6493C18.0872 1.67578 18.4444 2.03611 18.4444 2.47781V7.3427C18.4444 7.7844 18.0872 8.14473 17.6493 8.14473H16.0726C15.6347 8.14473 15.2775 7.7845 15.2775 7.3427V2.47781C15.2775 2.03611 15.6346 1.67578 16.0726 1.67578Z" fill="#837683"/>
<path fill-rule="evenodd" clip-rule="evenodd" d="M32.9589 7.3428C32.9589 7.7845 33.3162 8.14483 33.7541 8.14483H35.3307C35.7686 8.14483 36.1258 7.7846 36.1258 7.3428V2.47781C36.1258 2.03611 35.7687 1.67578 35.3307 1.67578V6.54067C35.3307 6.98237 34.9736 7.3427 34.5356 7.3427L32.9589 7.3428ZM16.8541 7.3427L15.2775 7.3428C15.2775 7.7845 15.6347 8.14483 16.0726 8.14483H17.6493C18.0872 8.14483 18.4444 7.7846 18.4444 7.3428V2.47781C18.4444 2.03611 18.0872 1.67578 17.6493 1.67578V6.54067C17.6492 6.98247 17.2919 7.3427 16.8541 7.3427ZM8.80845 8.14483C9.24634 8.14483 9.60356 7.7846 9.60356 7.3428V2.47781C9.60356 2.03611 9.24634 1.67578 8.80845 1.67578V6.54067C8.80845 6.98237 8.45122 7.3427 8.01333 7.3427L6.43677 7.3428C6.43677 7.7845 6.79399 8.14483 7.23188 8.14483H8.80845ZM26.4899 8.14483C26.9278 8.14483 27.285 7.7846 27.285 7.3428V2.47781C27.285 2.03611 26.9279 1.67578 26.4899 1.67578V6.54067C26.4899 6.98237 26.1328 7.3427 25.6948 7.3427L24.1182 7.3428C24.1182 7.7845 24.4754 8.14483 24.9133 8.14483H26.4899Z" fill="#685E68"/>
</svg>
