<svg width="110" height="110" viewBox="0 0 110 110" fill="none" xmlns="http://www.w3.org/2000/svg">
<path d="M50.9272 109.98C79.0435 109.98 101.836 87.1875 101.836 59.0712C101.836 30.9549 79.0435 8.16211 50.9272 8.16211C22.8108 8.16211 0.0180664 30.9549 0.0180664 59.0712C0.0180664 87.1875 22.8108 109.98 50.9272 109.98Z" fill="#E7EFFF"/>
<path d="M3.07261 11.2185C4.75959 11.2185 6.12716 9.8509 6.12716 8.16392C6.12716 6.47694 4.75959 5.10938 3.07261 5.10938C1.38563 5.10938 0.0180664 6.47694 0.0180664 8.16392C0.0180664 9.8509 1.38563 11.2185 3.07261 11.2185Z" fill="#00C99F"/>
<path d="M101.836 6.12667C103.523 6.12667 104.891 4.7591 104.891 3.07212C104.891 1.38514 103.523 0.0175781 101.836 0.0175781C100.149 0.0175781 98.7817 1.38514 98.7817 3.07212C98.7817 4.7591 100.149 6.12667 101.836 6.12667Z" fill="#FFA100"/>
<path d="M106.927 94.6872C108.614 94.6872 109.982 93.3196 109.982 91.6327C109.982 89.9457 108.614 88.5781 106.927 88.5781C105.24 88.5781 103.873 89.9457 103.873 91.6327C103.873 93.3196 105.24 94.6872 106.927 94.6872Z" fill="#00C99F"/>
<path d="M6.12706 109.982C7.81403 109.982 9.1816 108.615 9.1816 106.928C9.1816 105.241 7.81403 103.873 6.12706 103.873C4.44008 103.873 3.07251 105.241 3.07251 106.928C3.07251 108.615 4.44008 109.982 6.12706 109.982Z" fill="#FF4D69"/>
<path d="M88.5998 19.3639V93.3043C84.2303 98.1173 78.9806 102.05 73.1337 104.891H28.7206C22.8736 102.05 17.6239 98.1173 13.2544 93.3043V9.1821C13.2544 8.10195 13.6835 7.06603 14.4473 6.30225C15.2111 5.53846 16.247 5.10938 17.3271 5.10938H74.3453L88.5998 19.3639Z" fill="#A5BCED"/>
<path d="M88.6 19.3639H76.3818C75.8417 19.3639 75.3238 19.1494 74.9419 18.7675C74.56 18.3856 74.3455 17.8676 74.3455 17.3276V5.10938L88.6 19.3639Z" fill="#4E6AFF"/>
<path d="M50.9272 50.9272C61.6114 50.9272 70.2727 42.266 70.2727 31.5818C70.2727 20.8976 61.6114 12.2363 50.9272 12.2363C40.243 12.2363 31.5818 20.8976 31.5818 31.5818C31.5818 42.266 40.243 50.9272 50.9272 50.9272Z" fill="#FFA100"/>
<path d="M50.9272 44.8169C50.5245 44.8169 50.1308 44.6974 49.7959 44.4737C49.461 44.2499 49.2 43.9319 49.0459 43.5598C48.8918 43.1877 48.8514 42.7782 48.93 42.3832C49.0086 41.9882 49.2025 41.6254 49.4873 41.3406C49.7721 41.0558 50.1349 40.8618 50.53 40.7833C50.925 40.7047 51.3344 40.745 51.7065 40.8992C52.0786 41.0533 52.3967 41.3143 52.6204 41.6492C52.8442 41.984 52.9636 42.3778 52.9636 42.7805C52.9636 43.3206 52.7491 43.8385 52.3672 44.2204C51.9853 44.6023 51.4673 44.8169 50.9272 44.8169Z" fill="white"/>
<path d="M24.4544 64.1638C26.1414 64.1638 27.509 62.7962 27.509 61.1092C27.509 59.4223 26.1414 58.0547 24.4544 58.0547C22.7675 58.0547 21.3999 59.4223 21.3999 61.1092C21.3999 62.7962 22.7675 64.1638 24.4544 64.1638Z" fill="#4E6AFF"/>
<path d="M77.4 62.1262H32.6C32.3299 62.1262 32.071 62.0189 31.88 61.828C31.6891 61.637 31.5818 61.3781 31.5818 61.108C31.5818 60.838 31.6891 60.579 31.88 60.3881C32.071 60.1971 32.3299 60.0898 32.6 60.0898H77.4C77.67 60.0898 77.929 60.1971 78.1199 60.3881C78.3109 60.579 78.4182 60.838 78.4182 61.108C78.4182 61.3781 78.3109 61.637 78.1199 61.828C77.929 62.0189 77.67 62.1262 77.4 62.1262Z" fill="white"/>
<path d="M24.4544 74.3454C26.1414 74.3454 27.509 72.9779 27.509 71.2909C27.509 69.6039 26.1414 68.2363 24.4544 68.2363C22.7675 68.2363 21.3999 69.6039 21.3999 71.2909C21.3999 72.9779 22.7675 74.3454 24.4544 74.3454Z" fill="#4E6AFF"/>
<path d="M77.4 72.3078H32.6C32.3299 72.3078 32.071 72.2006 31.88 72.0096C31.6891 71.8187 31.5818 71.5597 31.5818 71.2897C31.5818 71.0196 31.6891 70.7606 31.88 70.5697C32.071 70.3788 32.3299 70.2715 32.6 70.2715H77.4C77.67 70.2715 77.929 70.3788 78.1199 70.5697C78.3109 70.7606 78.4182 71.0196 78.4182 71.2897C78.4182 71.5597 78.3109 71.8187 78.1199 72.0096C77.929 72.2006 77.67 72.3078 77.4 72.3078Z" fill="white"/>
<path d="M24.4544 84.5271C26.1414 84.5271 27.509 83.1595 27.509 81.4725C27.509 79.7855 26.1414 78.418 24.4544 78.418C22.7675 78.418 21.3999 79.7855 21.3999 81.4725C21.3999 83.1595 22.7675 84.5271 24.4544 84.5271Z" fill="#4E6AFF"/>
<path d="M77.4 82.4895H32.6C32.3299 82.4895 32.071 82.3822 31.88 82.1913C31.6891 82.0003 31.5818 81.7413 31.5818 81.4713C31.5818 81.2013 31.6891 80.9423 31.88 80.7513C32.071 80.5604 32.3299 80.4531 32.6 80.4531H77.4C77.67 80.4531 77.929 80.5604 78.1199 80.7513C78.3109 80.9423 78.4182 81.2013 78.4182 81.4713C78.4182 81.7413 78.3109 82.0003 78.1199 82.1913C77.929 82.3822 77.67 82.4895 77.4 82.4895Z" fill="white"/>
<path d="M24.4544 94.7087C26.1414 94.7087 27.509 93.3411 27.509 91.6542C27.509 89.9672 26.1414 88.5996 24.4544 88.5996C22.7675 88.5996 21.3999 89.9672 21.3999 91.6542C21.3999 93.3411 22.7675 94.7087 24.4544 94.7087Z" fill="#4E6AFF"/>
<path d="M77.4 92.6731H32.6C32.3299 92.6731 32.071 92.5658 31.88 92.3749C31.6891 92.1839 31.5818 91.9249 31.5818 91.6549C31.5818 91.3849 31.6891 91.1259 31.88 90.9349C32.071 90.744 32.3299 90.6367 32.6 90.6367H77.4C77.67 90.6367 77.929 90.744 78.1199 90.9349C78.3109 91.1259 78.4182 91.3849 78.4182 91.6549C78.4182 91.9249 78.3109 92.1839 78.1199 92.3749C77.929 92.5658 77.67 92.6731 77.4 92.6731Z" fill="white"/>
<path d="M98.7541 38.6035L106.02 42.2853L92.2133 69.5318L84.9476 65.8501L98.7541 38.6035ZM76.6361 91.2975C76.3963 91.1754 76.2146 90.9634 76.1307 90.7077C76.0467 90.4521 76.0674 90.1736 76.1881 89.9331L76.6463 89.0269C76.7002 88.8977 76.7801 88.7809 76.881 88.6839C76.982 88.587 77.1019 88.5118 77.2333 88.4633C77.3646 88.4148 77.5045 88.3938 77.6443 88.4018C77.7841 88.4098 77.9207 88.4465 78.0457 88.5097C78.1706 88.5729 78.2812 88.6612 78.3705 88.769C78.4598 88.8768 78.5259 89.0019 78.5647 89.1365C78.6034 89.271 78.614 89.4121 78.5958 89.5509C78.5775 89.6898 78.5309 89.8233 78.4587 89.9433L78.0005 90.8495C77.8784 91.0893 77.6664 91.271 77.4108 91.355C77.1551 91.4389 76.8766 91.4182 76.6361 91.2975Z" fill="#4E6AFF"/>
<path d="M104.693 33.63L106.51 34.5505C106.991 34.7946 107.356 35.2201 107.524 35.7334C107.693 36.2466 107.65 36.8056 107.406 37.2874L105.105 41.8284L99.6553 39.0671L101.956 34.526C102.2 34.0443 102.626 33.6793 103.139 33.5112C103.652 33.3432 104.211 33.3859 104.693 33.63Z" fill="#323FD4"/>
<path d="M83.9468 85.8807L78.4588 89.9433L76.6465 89.0269L76.677 82.1949L83.9468 85.8807ZM95.8698 69.0909C95.7141 69.0124 95.5813 68.8953 95.4839 68.7507C95.3865 68.6062 95.3279 68.4391 95.3135 68.2654C95.2992 68.0917 95.3298 67.9172 95.4022 67.7587C95.4746 67.6002 95.5865 67.4629 95.7272 67.36C97.2647 66.2196 97.3258 66.2196 97.4683 65.9345L107.833 45.4793C107.895 45.3597 107.932 45.2292 107.943 45.0952C107.953 44.9612 107.937 44.8265 107.896 44.6987C107.854 44.5709 107.788 44.4526 107.7 44.3507C107.612 44.2487 107.505 44.1651 107.385 44.1047L98.3032 39.5025C98.1801 39.4441 98.07 39.3616 97.9794 39.2599C97.8888 39.1581 97.8195 39.0393 97.7756 38.9103C97.7318 38.7813 97.7143 38.6448 97.7242 38.5089C97.734 38.373 97.7711 38.2405 97.8331 38.1192C97.8951 37.9979 97.9808 37.8902 98.0852 37.8026C98.1896 37.7151 98.3105 37.6493 98.4407 37.6093C98.5709 37.5693 98.7079 37.5559 98.8434 37.5698C98.979 37.5836 99.1103 37.6246 99.2298 37.6902L108.312 42.2923C109.026 42.6585 109.567 43.2911 109.819 44.0532C110.07 44.8153 110.012 45.6458 109.656 46.3651L99.2908 66.8611C98.853 67.7062 98.2727 68.0116 96.9388 68.9993C96.7868 69.1125 96.6062 69.1811 96.4174 69.1973C96.2285 69.2135 96.0388 69.1767 95.8698 69.0909Z" fill="#8FA2FF"/>
<path d="M95.9614 53.1563C95.8405 53.0968 95.7325 53.0139 95.6439 52.9123C95.5553 52.8108 95.4877 52.6927 95.4451 52.5648C95.4025 52.4369 95.3857 52.3019 95.3956 52.1675C95.4056 52.0331 95.4422 51.902 95.5032 51.7818L97.3461 48.1469C97.4069 48.0272 97.4908 47.9207 97.5928 47.8334C97.6948 47.7461 97.813 47.6798 97.9406 47.6382C98.0682 47.5966 98.2028 47.5806 98.3367 47.591C98.4705 47.6014 98.601 47.6381 98.7207 47.6989C98.8403 47.7597 98.9468 47.8435 99.0341 47.9455C99.1214 48.0475 99.1877 48.1657 99.2293 48.2934C99.2709 48.421 99.287 48.5556 99.2766 48.6894C99.2662 48.8233 99.2295 48.9538 99.1686 49.0734L97.3257 52.7083C97.2037 52.9482 96.9916 53.1299 96.736 53.2138C96.4803 53.2978 96.2018 53.2771 95.9614 53.1563ZM84.9487 65.85L92.2145 69.5318L83.9305 85.8797L76.6648 82.1979L84.9487 65.85Z" fill="#323FD4"/>
<path d="M50.9272 38.7094C50.3871 38.7094 49.8692 38.4949 49.4873 38.113C49.1054 37.7311 48.8908 37.2132 48.8908 36.6731V36.2454C48.9132 34.9676 49.2882 33.7208 49.9746 32.6427C50.661 31.5647 51.6319 30.6973 52.7803 30.1363C53.4241 29.8074 53.9687 29.313 54.3582 28.7039C54.7478 28.0948 54.9681 27.393 54.9967 26.6706C55.0253 25.9482 54.861 25.2312 54.5209 24.5933C54.1807 23.9553 53.6768 23.4194 53.061 23.0407C52.4452 22.6619 51.7397 22.4538 51.0169 22.4379C50.2941 22.422 49.58 22.5987 48.9482 22.95C48.3163 23.3014 47.7893 23.8145 47.4213 24.4369C47.0534 25.0592 46.8577 25.7683 46.8545 26.4913C46.8545 27.0313 46.6399 27.5493 46.258 27.9312C45.8761 28.3131 45.3582 28.5276 44.8181 28.5276C44.278 28.5276 43.7601 28.3131 43.3782 27.9312C42.9963 27.5493 42.7817 27.0313 42.7817 26.4913C42.781 25.0436 43.1662 23.6218 43.8975 22.3725C44.6288 21.1231 45.6799 20.0912 46.9425 19.383C48.2052 18.6748 49.6337 18.3159 51.0812 18.3433C52.5286 18.3706 53.9426 18.7832 55.1775 19.5387C56.4125 20.2941 57.4238 21.365 58.1074 22.6411C58.791 23.9172 59.1221 25.3525 59.0667 26.7991C59.0112 28.2457 58.5713 29.6515 57.7921 30.8716C57.0128 32.0916 55.9225 33.082 54.6334 33.7407C54.1519 33.9646 53.7414 34.3168 53.4468 34.7586C53.1523 35.2005 52.9851 35.7149 52.9636 36.2454V36.6731C52.9636 37.2132 52.749 37.7311 52.3671 38.113C51.9852 38.4949 51.4673 38.7094 50.9272 38.7094Z" fill="white"/>
</svg>
