<svg width="60" height="60" viewBox="0 0 60 60" fill="none" xmlns="http://www.w3.org/2000/svg">
<path d="M39.7918 25.236C40.072 23.181 40.072 21.1261 39.6984 19.0711L43.6215 16.5491L41.1929 11.038L36.7093 12.2523C35.495 10.5709 34.0005 9.07641 32.2257 7.95551L33.2532 3.37851L27.6488 1.13672L25.3136 5.15327C23.2586 4.87304 21.2036 4.87304 19.1486 5.24668L16.6266 1.32353L11.0221 3.84555L12.2364 8.32914C10.5551 9.54345 9.06054 11.038 7.93964 12.8127L3.36264 11.7852L1.12085 17.3897L5.1374 19.7249C4.85717 21.7799 4.85717 23.8349 5.23081 25.8899L1.30767 28.4119L3.82968 33.923L8.31327 32.8021C9.52758 34.4834 11.0221 35.9779 12.7969 37.0988L11.7694 41.6758L17.3739 43.9176L19.7091 39.9011C21.764 40.1813 23.819 40.1813 25.874 39.8077L28.396 43.7308L33.9071 41.3022L32.7862 36.6318C34.4675 35.4175 35.9621 33.923 37.083 32.1482L41.66 33.1757L43.9018 27.5712L39.7918 25.236Z" fill="#FDBF5E"/>
<path d="M22.4179 33.2683C28.4021 33.2683 33.2532 28.4172 33.2532 22.433C33.2532 16.4488 28.4021 11.5977 22.4179 11.5977C16.4337 11.5977 11.5825 16.4488 11.5825 22.433C11.5825 28.4172 16.4337 33.2683 22.4179 33.2683Z" fill="white"/>
<path d="M29.5169 45.598L45.5831 29.5318C49.1326 30.6527 53.1491 29.7186 56.0448 26.9164C58.847 24.1142 59.6877 20.0976 58.6602 16.4547L50.5337 24.5812L43.6215 17.669L51.748 9.54249C48.1985 8.42159 44.1819 9.35567 41.2863 12.1579C38.484 14.9602 37.6434 18.9767 38.6709 22.6196L22.5113 38.6858C18.9618 37.5649 14.9452 38.499 12.0496 41.3013C9.24731 44.1035 8.40663 48.12 9.43412 51.763L17.5606 43.6365L24.4728 50.5487L16.3463 58.6752C19.8958 59.7961 23.9124 58.862 26.808 56.0597C29.7037 53.1641 30.5444 49.1475 29.5169 45.598Z" fill="white"/>
<path d="M39.7918 42.7035L42.6874 39.7145L27.9289 24.956L28.2092 22.3406L20.0827 17.2031L17.187 20.0988L22.3245 28.3187L25.0333 27.9451L39.7918 42.7035Z" fill="white"/>
<path d="M46.3304 40.2737V38.7791C46.3304 37.7517 45.116 37.2846 44.3688 37.9385L38.017 44.2902C37.2698 45.0375 37.8302 46.2518 38.8577 46.2518H40.2588C41.1929 46.2518 42.127 46.532 42.8743 47.0925L43.1545 47.3727C44.0886 48.3068 44.4622 49.5211 44.3688 50.642L44.5556 50.8288L50.8139 57.0871C52.4953 58.7685 55.2975 58.7685 57.0723 57.0871C58.847 55.3124 58.847 52.6035 57.0723 50.8288L50.8139 44.5705L50.6271 44.3836C49.5062 44.477 48.2919 44.1034 47.3578 43.1693L47.0776 42.8891C46.5172 42.1418 46.3304 41.2078 46.3304 40.2737Z" fill="#F16051"/>
<path d="M51.0942 43.4504H50.6272C49.6931 43.5438 48.759 43.1702 48.1052 42.5163C48.0118 42.4229 47.9184 42.3295 47.9184 42.2361C47.4513 41.6756 47.2645 41.0218 47.2645 40.1811V38.6866C47.2645 38.1261 47.0777 37.5657 46.7041 37.1921C45.9568 36.4448 44.5557 36.3514 43.8084 37.1921L42.6875 38.4064L40.3523 36.0712L45.8634 30.5601C46.7975 30.7469 47.7315 30.9337 48.6656 30.9337C51.7481 30.9337 54.5503 29.7194 56.6987 27.571C59.6878 24.582 60.7153 20.2852 59.501 16.1752L59.0339 14.6807L50.4404 23.2742L44.8359 17.6698L53.4294 9.07621L51.9349 8.60917C50.9074 8.32895 49.7865 8.14213 48.6656 8.14213C46.237 8.14213 43.9018 8.8894 41.9402 10.3839L41.7534 9.91688L37.083 11.1312C35.9621 9.73007 34.7478 8.51576 33.3467 7.48827L34.3742 2.81787L27.2752 0.015625L24.8466 4.12558C23.0718 3.93877 21.2971 3.93877 19.6157 4.21899L16.9069 0.202441L9.90126 3.28491L11.1156 7.95531C9.71444 9.07621 8.50014 10.2905 7.47265 11.6916L2.80224 10.6641L0 17.7632L4.10996 20.1918C3.92314 21.9665 3.92314 23.7413 4.20337 25.4226L0.186816 28.0381L3.26928 35.0437L7.93969 33.8294C9.06059 35.2305 10.2749 36.4448 11.676 37.4723L10.8353 41.302C8.31332 44.1977 7.47265 48.2142 8.59355 51.9505L9.06059 53.4451L17.6541 44.8515L23.2586 50.456L14.6651 59.0496L16.1596 59.5166C17.1871 59.7968 18.308 59.9836 19.4289 59.9836C22.5114 59.9836 25.3136 58.7693 27.462 56.6209C30.2642 53.8187 31.3851 49.7087 30.451 45.7856L36.0555 40.1811L38.3907 42.5163L37.3632 43.5438C36.8028 44.1043 36.616 45.0383 36.8962 45.7856C37.1764 46.5329 37.9237 47.0933 38.8578 47.0933H40.3523C41.0996 47.0933 41.8468 47.2801 42.4073 47.7472C42.5007 47.8406 42.5941 47.8406 42.6875 47.934C43.4348 48.5878 43.715 49.5219 43.6216 50.456V50.923L50.347 57.6484C51.3745 58.6759 52.6822 59.2364 54.0833 59.2364C55.4844 59.2364 56.8855 58.6759 57.913 57.6484C59.968 55.5935 60.0614 52.1374 57.913 50.0824L51.0942 43.4504ZM49.7865 10.1037L42.2205 17.6698L50.5338 25.9831L58.0998 18.417C58.4735 21.3127 57.446 24.2083 55.391 26.2633C53.6163 28.0381 51.1876 29.0655 48.6656 29.0655C47.7315 29.0655 46.7975 28.9721 45.8634 28.6919L45.3029 28.5051L39.0446 34.7634L33.4401 29.159L39.6984 22.9006L39.5116 22.3402C38.4841 18.9775 39.4182 15.3346 41.8468 12.8125C43.6216 11.0378 46.0502 10.0103 48.5722 10.0103C49.0393 10.0103 49.4129 10.0103 49.7865 10.1037ZM9.06059 32.2414L8.68695 31.681L4.39018 32.8019L2.61543 28.6919L6.35175 26.2633L6.25834 25.6094C5.88471 23.6479 5.7913 21.6863 6.16494 19.7247L6.25834 19.0709L2.42861 16.8291L4.01655 12.7191L8.40673 13.6532L8.78036 13.0928C9.90126 11.4114 11.209 10.0103 12.7969 8.8894L13.3574 8.51576L12.2365 4.21899L16.3464 2.44424L18.775 6.18056L19.4289 6.08715C21.297 5.71352 23.352 5.62011 25.3136 5.99374L25.9675 6.08715L28.2093 2.25742L32.3192 3.84536L31.3851 8.23554L31.9456 8.60917C33.6269 9.73007 35.028 11.0378 36.1489 12.6257L36.5226 13.1862L40.0721 12.2521C37.7369 15.0543 36.8962 18.6972 37.8303 22.2468L32.3192 27.7578L29.1433 24.582L29.4236 21.7797L20.0827 15.9884L15.9728 20.005L21.8575 29.2524L24.7532 28.8787L27.929 31.9612L22.4179 37.4723C21.4839 37.2855 20.5498 37.0986 19.6157 37.0986C17.3739 37.0986 15.2255 37.7525 13.3574 38.9668L13.9178 36.4448L13.3574 36.0712C11.5826 35.2305 10.1815 33.8294 9.06059 32.2414ZM28.3961 45.3186L28.5829 45.879C29.6104 49.2417 28.6763 52.8846 26.2477 55.4066C24.4729 57.1814 22.0443 58.2089 19.5223 58.2089C19.1487 58.2089 18.775 58.2089 18.4014 58.1155L25.9675 50.5494L17.6541 42.2361L10.0881 49.8022C9.71444 46.9065 10.7419 44.0108 12.7969 41.9559C14.5717 40.1811 17.0003 39.1536 19.5223 39.1536C20.4564 39.1536 21.3905 39.247 22.3245 39.5273L22.885 39.7141L29.2367 33.3623L34.8412 38.9668L28.3961 45.3186ZM25.407 26.9172L22.7916 27.2908L18.4014 20.2852L20.2696 18.417L27.2752 22.8072L26.9949 25.3292L41.3798 39.7141L39.7919 41.302L25.407 26.9172ZM56.4185 56.3407C55.1108 57.6484 52.7756 57.6484 51.4679 56.3407L45.3963 50.2692C45.3963 48.9615 44.8359 47.6538 43.9018 46.7197L43.5282 46.3461C42.6875 45.6922 41.5666 45.3186 40.2589 45.3186H38.8578C38.7644 45.3186 38.671 45.3186 38.671 45.2252V45.0383L39.6984 44.0108L43.9952 39.7141L45.0227 38.6866C45.1161 38.5932 45.2095 38.5932 45.3029 38.6866L45.3963 38.78V40.2745C45.3963 41.4888 45.77 42.6097 46.5172 43.5438C46.6106 43.6372 46.7041 43.824 46.8909 43.9174C47.825 44.8515 49.1327 45.412 50.4404 45.412L56.5119 51.4835C57.8196 52.7912 57.8196 55.033 56.4185 56.3407Z" fill="#193651"/>
<path d="M27.8384 41.5977L26.5174 40.2766L27.8384 38.9557L29.1594 40.2767L27.8384 41.5977Z" fill="#193651"/>
<path d="M39.0293 27.8164L40.3503 26.4954L41.6713 27.8164L40.3503 29.1374L39.0293 27.8164Z" fill="#193651"/>
</svg>
