<svg width="130" height="110" viewBox="0 0 130 110" fill="none" xmlns="http://www.w3.org/2000/svg">
<path d="M65.0001 17.7207C58.5924 17.7208 52.3241 19.5906 46.9634 23.1008C41.6028 26.6109 37.3828 31.609 34.8209 37.4821C32.2589 43.3553 31.4663 49.8484 32.5402 56.1654C33.6141 62.4824 36.5079 68.3488 40.8667 73.0454L37.461 85.7514C37.2596 86.5014 37.2853 87.2944 37.5346 88.0299C37.784 88.7654 38.246 89.4104 38.862 89.8833C39.4781 90.3562 40.2205 90.6357 40.9955 90.6866C41.7705 90.7374 42.5431 90.5573 43.2157 90.1689L56.54 82.4744C61.0674 83.6779 65.7994 83.9015 70.4201 83.1304C75.0408 82.3594 79.4438 80.6112 83.335 78.0028C87.2262 75.3945 90.5161 71.9858 92.985 68.0046C95.4539 64.0234 97.0449 59.5612 97.6518 54.9161C98.2587 50.271 97.8674 45.5499 96.5043 41.068C95.1411 36.5861 92.8374 32.4467 89.7469 28.9262C86.6564 25.4056 82.8503 22.585 78.5828 20.6526C74.3153 18.7203 69.6847 17.7207 65.0001 17.7207Z" fill="#2EC4B6"/>
<path d="M65 17.7207V83.5715C73.7324 83.5715 82.1071 80.1026 88.2818 73.9279C94.4565 67.7532 97.9254 59.3785 97.9254 50.6461C97.9254 41.9137 94.4565 33.539 88.2818 27.3643C82.1071 21.1896 73.7324 17.7207 65 17.7207Z" fill="#2AB5A4"/>
<path d="M129.854 53.4429C129.897 51.8409 129.941 50.1842 129.867 48.449C129.65 43.6212 127.573 39.0648 124.071 35.7345C120.569 32.4042 115.914 30.5583 111.081 30.5836C103.319 12.8254 85.5868 0.382812 65 0.382812C44.4132 0.382812 26.6809 12.8254 18.9194 30.5836C14.0855 30.5576 9.42916 32.4042 5.92681 35.736C2.42446 39.0679 0.348065 43.6263 0.132975 48.4556C0.0599559 50.1829 0.104187 51.8409 0.146847 53.4429C0.192124 55.1441 0.238972 56.9039 0.155222 58.8762C-0.0498459 63.8236 1.71437 68.6506 5.06138 72.2998C8.4084 75.949 13.0653 78.1229 18.012 78.3452C18.2858 78.3569 18.5588 78.3628 18.8312 78.363C21.1966 78.3643 23.5405 77.9139 25.7369 77.0358C26.2952 76.8617 26.8075 76.565 27.2364 76.1676C27.6654 75.7701 28.0001 75.2818 28.2161 74.7384C28.4322 74.195 28.5241 73.6102 28.4851 73.0267C28.4462 72.4432 28.2774 71.8758 27.9911 71.3659C24.4473 65.0353 22.5871 57.9012 22.5884 50.6462C22.5884 27.2605 41.6154 8.23464 65 8.23464C88.3845 8.23464 107.411 27.2616 107.411 50.6462C107.441 60.5452 103.995 70.1404 97.6741 77.7589C91.3536 85.3774 82.5596 90.5359 72.8254 92.3348C71.8002 90.0139 69.9964 88.1241 67.7258 86.992C65.4551 85.8599 62.8602 85.5567 60.3898 86.1348C57.9193 86.713 55.7284 88.1361 54.1958 90.1581C52.6633 92.1802 51.8854 94.6742 51.9965 97.209C52.1077 99.7438 53.101 102.16 54.8047 104.04C56.5085 105.92 58.8155 107.146 61.3271 107.506C63.8388 107.865 66.3971 107.336 68.5599 106.01C70.7228 104.683 72.3542 102.643 73.1721 100.241C80.0868 99.0975 86.6865 96.5229 92.5487 92.6817C98.4109 88.8405 103.406 83.8175 107.215 77.9343C108.514 78.2182 109.84 78.3618 111.17 78.3627C111.443 78.3627 111.716 78.3569 111.991 78.3452C116.937 78.1221 121.593 75.9481 124.939 72.2993C128.285 68.6506 130.049 63.8244 129.844 58.8777C129.761 56.9044 129.808 55.1446 129.854 53.4429Z" fill="#2EA8E6"/>
<path d="M129.854 53.4436C129.897 51.8417 129.941 50.185 129.867 48.4498C129.645 43.5031 127.471 38.8462 123.822 35.4997C120.172 32.1531 115.345 30.3899 110.397 30.5964C109.541 30.6353 108.689 30.7315 107.846 30.8843C107.282 30.9846 106.747 31.2073 106.278 31.5367C105.809 31.8661 105.417 32.2942 105.131 32.791C104.846 33.2877 104.672 33.8411 104.623 34.4121C104.573 34.9831 104.65 35.558 104.846 36.0964C106.936 41.8344 107.765 47.9556 107.275 54.0427C106.785 60.1298 104.988 66.0397 102.007 71.3695C101.721 71.8794 101.553 72.4467 101.514 73.0299C101.476 73.6131 101.568 74.1976 101.784 74.7407C102 75.2837 102.335 75.7717 102.764 76.1689C103.193 76.5661 103.705 76.8625 104.263 77.0365C106.46 77.9147 108.804 78.3651 111.17 78.3634C111.443 78.3634 111.717 78.3576 111.991 78.3459C116.937 78.1228 121.593 75.9488 124.939 72.3001C128.285 68.6513 130.049 63.8251 129.844 58.8785C129.761 56.9051 129.808 55.1453 129.854 53.4436Z" fill="#176F93"/>
<path d="M104.88 36.2105C104.868 36.1723 104.86 36.132 104.846 36.0946C104.649 35.5562 104.573 34.9813 104.622 34.4103C104.671 33.8393 104.845 33.2859 105.131 32.7892C105.417 32.2924 105.808 31.8643 106.277 31.5349C106.746 31.2055 107.281 30.9828 107.846 30.8825C108.689 30.7297 109.541 30.6335 110.396 30.5946C110.626 30.5846 110.853 30.5841 111.081 30.5825C103.319 12.8254 85.5871 0.383074 65 0.382812V8.23438C83.3203 8.23464 98.9622 19.9104 104.88 36.2105Z" fill="#1794C6"/>
<path d="M27.9911 71.3655C25.0108 66.0358 23.2146 60.1261 22.7251 54.0393C22.2355 47.9525 23.0641 41.8318 25.1543 36.0942C25.351 35.5558 25.4274 34.981 25.3781 34.4099C25.3289 33.8389 25.1552 33.2856 24.8693 32.7888C24.5834 32.2921 24.1921 31.8639 23.7231 31.5345C23.254 31.2051 22.7186 30.9824 22.1543 30.8821C21.3085 30.729 20.4535 30.6328 19.5949 30.5942C14.6475 30.3891 9.82055 32.1541 6.17233 35.5022C2.52412 38.8503 0.352298 43.5084 0.132975 48.4552C0.0599559 50.1825 0.104187 51.8405 0.146847 53.4425C0.192124 55.1437 0.238972 56.9035 0.155222 58.8758C-0.0498459 63.8232 1.71437 68.6502 5.06138 72.2994C8.4084 75.9487 13.0653 78.1225 18.012 78.3448C18.2858 78.3565 18.5588 78.3624 18.8312 78.3626C21.1966 78.364 23.5405 77.9135 25.7369 77.0354C26.2952 76.8613 26.8075 76.5647 27.2364 76.1672C27.6654 75.7697 28.0001 75.2814 28.2161 74.738C28.4322 74.1946 28.5241 73.6098 28.4851 73.0263C28.4462 72.4428 28.2774 71.8754 27.9911 71.3655Z" fill="#176F93"/>
<path d="M22.5884 50.6458C22.5827 45.6823 23.4509 40.7566 25.1533 36.0942C25.35 35.5559 25.4263 34.981 25.3771 34.4099C25.3279 33.8389 25.1542 33.2856 24.8682 32.7888C24.5823 32.2921 24.1911 31.864 23.722 31.5346C23.253 31.2052 22.7175 30.9825 22.1532 30.8821C21.3075 30.729 20.4525 30.6328 19.5939 30.5942C18.5302 30.5501 17.4647 30.5968 16.409 30.7337C13.7217 34.7881 12.2173 39.5112 12.0645 44.3729C11.9831 46.5936 12.0323 48.7214 12.0799 50.7793C12.1304 52.9649 12.1828 55.2248 12.0893 57.758C11.7803 66.1244 15.2501 73.6893 20.7512 78.2605C22.4618 78.0844 24.1397 77.672 25.7369 77.0349C26.2952 76.8608 26.8075 76.5642 27.2364 76.1667C27.6654 75.7692 28.0001 75.2809 28.2161 74.7375C28.4322 74.1941 28.5241 73.6093 28.4852 73.0258C28.4462 72.4423 28.2774 71.8749 27.9911 71.365C24.4475 65.0345 22.5873 57.9007 22.5884 50.6458ZM107.411 50.6458C107.417 45.6823 106.549 40.7566 104.847 36.0942C104.65 35.5559 104.574 34.981 104.623 34.4099C104.672 33.8389 104.846 33.2856 105.132 32.7888C105.418 32.2921 105.809 31.864 106.278 31.5346C106.747 31.2052 107.282 30.9825 107.847 30.8821C108.693 30.729 109.548 30.6328 110.406 30.5942C111.47 30.5501 112.535 30.5968 113.591 30.7337C116.278 34.7881 117.783 39.5112 117.935 44.3729C118.017 46.5936 117.968 48.7214 117.92 50.7793C117.87 52.9649 117.817 55.2248 117.911 57.758C118.222 66.1233 114.752 73.6883 109.251 78.2603C107.54 78.0842 105.862 77.6717 104.265 77.0346C103.707 76.8605 103.195 76.5639 102.766 76.1664C102.337 75.7689 102.002 75.2807 101.786 74.7373C101.57 74.1938 101.478 73.609 101.517 73.0256C101.556 72.4421 101.725 71.8746 102.011 71.3648C105.554 65.0341 107.413 57.9004 107.411 50.6458Z" fill="#0D647F"/>
<path d="M51.9208 54.5723C50.8796 54.5733 49.8807 54.1606 49.1437 53.4251C48.4068 52.6896 47.9922 51.6915 47.9912 50.6503C47.9902 49.6091 48.4028 48.6102 49.1384 47.8732C49.8739 47.1363 50.872 46.7217 51.9132 46.7207H51.9208C52.962 46.7207 53.9605 47.1343 54.6967 47.8705C55.433 48.6068 55.8466 49.6053 55.8466 50.6465C55.8466 51.6877 55.433 52.6862 54.6967 53.4224C53.9605 54.1587 52.962 54.5723 51.9208 54.5723ZM64.9999 54.572C64.8706 54.5725 64.7413 54.5663 64.6126 54.5534C64.4852 54.5409 64.3585 54.5217 64.2331 54.4961C64.1075 54.4699 63.9818 54.4385 63.8588 54.4019C63.7363 54.3645 63.6157 54.3208 63.4977 54.271C63.3787 54.2234 63.2625 54.1692 63.1496 54.1088C63.037 54.0486 62.9271 53.9805 62.8198 53.9096C62.7131 53.839 62.61 53.7631 62.511 53.6822C62.4115 53.601 62.3147 53.5118 62.2231 53.4231C62.1315 53.3343 62.0451 53.2344 61.964 53.1352C61.8829 53.0362 61.8069 52.9331 61.7363 52.8263C61.6656 52.719 61.5976 52.6091 61.5374 52.4966C61.4772 52.384 61.4248 52.2663 61.3751 52.1485C61.3253 52.0304 61.2816 51.9099 61.2443 51.7873C61.2076 51.664 61.1762 51.5384 61.15 51.4128C61.1239 51.2872 61.1055 51.1592 61.0925 51.0336C61.0798 50.9048 61.0737 50.7756 61.0741 50.6462C61.0737 50.5178 61.0798 50.3893 61.0925 50.2615C61.1055 50.1333 61.1265 50.005 61.15 49.8794C61.1736 49.7538 61.2076 49.6281 61.2443 49.5077C61.2812 49.3842 61.3249 49.2627 61.3751 49.144C61.4248 49.0262 61.4798 48.911 61.5374 48.7985C61.5981 48.6844 61.6644 48.5735 61.7363 48.4661C61.807 48.3614 61.8828 48.2567 61.964 48.1573C62.0451 48.0578 62.1341 47.961 62.2231 47.8694C62.3121 47.7778 62.4115 47.694 62.511 47.6105C62.6104 47.532 62.7125 47.4535 62.8198 47.3829C62.9271 47.3122 63.037 47.2468 63.1496 47.1866C63.2621 47.1264 63.3799 47.0714 63.4977 47.0217C63.6158 46.9728 63.7363 46.9299 63.8588 46.8932C64.1047 46.8188 64.3571 46.7681 64.6126 46.7416C64.8693 46.7155 65.128 46.7155 65.3846 46.7416C65.5131 46.7528 65.6407 46.772 65.7668 46.7992C65.8925 46.8225 66.0167 46.8539 66.1384 46.8932C66.2617 46.9299 66.3832 46.9728 66.5022 47.0217C66.62 47.0714 66.7351 47.1264 66.8477 47.1866C66.9608 47.2464 67.0709 47.3119 67.1774 47.3829C67.2847 47.4535 67.3894 47.532 67.4889 47.6105C67.5883 47.694 67.6852 47.7807 67.7741 47.8694C67.8631 47.9581 67.9521 48.0581 68.0359 48.1573C68.1144 48.2567 68.1929 48.3614 68.2636 48.4661C68.3345 48.5735 68.4001 48.6845 68.4598 48.7985C68.52 48.911 68.575 49.0262 68.6247 49.144C68.6745 49.2617 68.7163 49.3845 68.7556 49.5077C68.7948 49.631 68.8236 49.7538 68.8498 49.8794C68.876 50.005 68.8943 50.1333 68.9074 50.2615C68.9205 50.3897 68.9257 50.518 68.9257 50.6462C68.9257 50.7745 68.9178 50.9053 68.9074 51.0336C68.8969 51.1618 68.8734 51.2872 68.8498 51.4128C68.8262 51.5384 68.7922 51.664 68.7556 51.7873C68.7189 51.9106 68.6745 52.0307 68.6247 52.1485C68.575 52.2663 68.52 52.384 68.4598 52.4966C68.3996 52.6091 68.3342 52.719 68.2636 52.8263C68.1929 52.9336 68.1144 53.0357 68.0359 53.1352C67.9521 53.2344 67.8657 53.3315 67.7741 53.4231C67.6825 53.5147 67.5883 53.601 67.4889 53.6822C67.3889 53.7631 67.285 53.839 67.1774 53.9096C67.071 53.9816 66.9609 54.0481 66.8477 54.1088C66.7356 54.1692 66.6202 54.2234 66.5022 54.271C66.3832 54.3208 66.2618 54.3645 66.1384 54.4019C66.018 54.4385 65.8924 54.4699 65.7668 54.4961C65.6405 54.5219 65.5129 54.541 65.3846 54.5534C65.2568 54.5663 65.1284 54.5725 64.9999 54.572Z" fill="#E6E9F2"/>
<path d="M68.8501 49.8794C68.824 49.7538 68.7926 49.6281 68.7559 49.5077C68.7193 49.3874 68.6748 49.2617 68.6251 49.144C68.5753 49.0262 68.5204 48.911 68.4602 48.7985C68.4004 48.6845 68.3349 48.5735 68.2639 48.4661C68.1932 48.3614 68.1147 48.2567 68.0362 48.1573C67.9525 48.0578 67.8661 47.961 67.7745 47.8694C67.6829 47.7778 67.5887 47.6943 67.4892 47.6105C67.3898 47.532 67.2851 47.4535 67.1778 47.3829C67.0712 47.3119 66.9612 47.2464 66.848 47.1866C66.7355 47.1264 66.6203 47.0714 66.5025 47.0217C66.3835 46.9728 66.2621 46.9299 66.1387 46.8932C66.017 46.8539 65.8929 46.8225 65.7671 46.7992C65.6411 46.772 65.5134 46.7528 65.385 46.7416C65.2571 46.7285 65.1286 46.722 65 46.722V54.5723C65.1285 54.5727 65.2569 54.5665 65.3847 54.5537C65.513 54.5413 65.6406 54.5222 65.7668 54.4964C65.8925 54.4702 66.0181 54.4388 66.1385 54.4021C66.2619 54.3648 66.3833 54.3211 66.5023 54.2713C66.6203 54.2236 66.7357 54.1694 66.8477 54.109C66.9609 54.0483 67.071 53.982 67.1775 53.9101C67.2848 53.8392 67.3895 53.7633 67.4889 53.6824C67.5884 53.6016 67.6852 53.512 67.7742 53.4233C67.8632 53.3346 67.9522 53.2346 68.0359 53.1354C68.1145 53.036 68.193 52.9339 68.2636 52.8266C68.3343 52.7193 68.3997 52.6094 68.4599 52.4968C68.5201 52.3843 68.5751 52.2665 68.6248 52.1488C68.6745 52.031 68.7164 51.908 68.7557 51.7876C68.7949 51.6672 68.8237 51.5387 68.8499 51.4131C68.8761 51.2874 68.8944 51.1595 68.9075 51.0338C68.9205 50.9082 68.9258 50.7747 68.9258 50.6465C68.9258 50.5182 68.9179 50.39 68.9075 50.2618C68.897 50.1335 68.8734 50.005 68.8501 49.8794ZM78.0859 54.5723C77.0448 54.5732 76.0458 54.1606 75.3089 53.425C74.572 52.6895 74.1575 51.6913 74.1565 50.6502C74.1555 49.609 74.5682 48.61 75.3037 47.8731C76.0393 47.1362 77.0374 46.7217 78.0786 46.7207H78.0859C79.1271 46.7207 80.1257 47.1343 80.8619 47.8705C81.5981 48.6068 82.0117 49.6053 82.0117 50.6465C82.0117 51.6877 81.5981 52.6862 80.8619 53.4224C80.1257 54.1587 79.1271 54.5723 78.0859 54.5723Z" fill="#CFD7E6"/>
<path d="M65.3931 107.279C71.2422 105.892 74.8595 100.026 73.4725 94.1774C72.0855 88.3283 66.2195 84.7111 60.3705 86.098C54.5214 87.485 50.9041 93.351 52.2911 99.2C53.6781 105.049 59.5441 108.666 65.3931 107.279Z" fill="#176F93"/>
<path d="M62.8708 85.8457V107.615C65.7576 107.615 68.5262 106.468 70.5674 104.427C72.6087 102.386 73.7555 99.6171 73.7555 96.7303C73.7555 93.8435 72.6087 91.075 70.5674 89.0337C68.5262 86.9925 65.7576 85.8457 62.8708 85.8457Z" fill="#0D647F"/>
<path d="M104.263 77.0364C103.747 76.8754 103.27 76.6095 102.861 76.2554C102.452 75.9012 102.121 75.4665 101.888 74.9785C101.656 74.4904 101.526 73.9595 101.508 73.4191C101.49 72.8786 101.584 72.3403 101.784 71.8379C98.7343 77.1517 94.5641 81.7378 89.5633 85.2775C84.5625 88.8172 78.8509 91.2256 72.8254 92.3354C73.9328 94.8333 74.0566 97.6571 73.172 100.242C80.0867 99.0989 86.6866 96.5241 92.5488 92.6828C98.411 88.8415 103.406 83.8183 107.215 77.9349C106.208 77.7168 105.221 77.4163 104.263 77.0364Z" fill="#1794C6"/>
</svg>
