<svg width="58" height="59" viewBox="0 0 58 59" fill="none" xmlns="http://www.w3.org/2000/svg">
<path d="M48.375 1.90625C47.2686 1.90626 46.178 2.1692 45.1931 2.6734C44.2083 3.1776 43.3573 3.90863 42.7104 4.80624C42.0635 5.70385 41.6392 6.74234 41.4724 7.83612C41.3057 8.9299 41.4012 10.0477 41.7512 11.0973L44.5 19.3438H14.4688V58.0938H45.4688C48.5519 58.0938 51.5088 56.869 53.6889 54.6889C55.869 52.5088 57.0938 49.5519 57.0938 46.4688V19.3438L48.375 1.90625Z" fill="#FDBF92"/>
<path d="M18.3438 48.4062H12.5312C9.85612 48.4062 7.6875 50.5749 7.6875 53.25C7.6875 55.9251 9.85612 58.0938 12.5312 58.0938H18.3438C21.0189 58.0938 23.1875 55.9251 23.1875 53.25C23.1875 50.5749 21.0189 48.4062 18.3438 48.4062Z" fill="#FDB683"/>
<path d="M29 14.5C27.6588 14.5 26.3477 14.1023 25.2325 13.3572C24.1174 12.612 23.2482 11.5529 22.7349 10.3138C22.2217 9.07471 22.0874 7.71123 22.3491 6.3958C22.6107 5.08036 23.2566 3.87206 24.2049 2.92369C25.1533 1.97531 26.3616 1.32946 27.677 1.0678C28.9925 0.806147 30.356 0.940438 31.5951 1.45369C32.8342 1.96695 33.8933 2.83612 34.6384 3.95129C35.3835 5.06646 35.7813 6.37755 35.7813 7.71875C35.7792 9.51663 35.0641 11.2403 33.7928 12.5116C32.5215 13.7829 30.7979 14.498 29 14.5ZM29 2.875C28.042 2.875 27.1055 3.15908 26.309 3.69132C25.5124 4.22356 24.8916 4.98005 24.525 5.86513C24.1583 6.75021 24.0624 7.72413 24.2493 8.66372C24.4362 9.60332 24.8975 10.4664 25.575 11.1438C26.2524 11.8212 27.1154 12.2825 28.055 12.4694C28.9946 12.6563 29.9685 12.5604 30.8536 12.1938C31.7387 11.8272 32.4952 11.2063 33.0274 10.4098C33.5597 9.61325 33.8438 8.67676 33.8438 7.71875C33.8423 6.43455 33.3315 5.20336 32.4235 4.2953C31.5154 3.38723 30.2842 2.87645 29 2.875Z" fill="#FFB431"/>
<path d="M27.0625 9.65625H30.9375V16.4375H27.0625V9.65625Z" fill="#C7483C"/>
<path d="M30.9375 56.1562C42.173 56.1562 51.2812 47.048 51.2812 35.8125C51.2812 24.577 42.173 15.4688 30.9375 15.4688C19.702 15.4688 10.5938 24.577 10.5938 35.8125C10.5938 47.048 19.702 56.1562 30.9375 56.1562Z" fill="#FDB683"/>
<path d="M19.3126 20.3116L13.2164 14.2154C13.1264 14.1254 13.0196 14.0541 12.9021 14.0054C12.7845 13.9567 12.6586 13.9316 12.5313 13.9316C12.4041 13.9316 12.2781 13.9567 12.1606 14.0054C12.0431 14.0541 11.9363 14.1254 11.8463 14.2154L9.34138 16.7203C9.25141 16.8103 9.18005 16.9171 9.13136 17.0346C9.08268 17.1522 9.05762 17.2781 9.05762 17.4054C9.05762 17.5326 9.08268 17.6586 9.13136 17.7761C9.18005 17.8936 9.25141 18.0004 9.34138 18.0904L15.4376 24.1866L19.3126 20.3116ZM38.6876 20.3116L44.7838 14.2154C44.8738 14.1254 44.9806 14.0541 45.0981 14.0054C45.2157 13.9567 45.3416 13.9316 45.4688 13.9316C45.5961 13.9316 45.722 13.9567 45.8396 14.0054C45.9571 14.0541 46.0639 14.1254 46.1539 14.2154L48.6588 16.7203C48.7488 16.8103 48.8202 16.9171 48.8688 17.0346C48.9175 17.1522 48.9426 17.2781 48.9426 17.4054C48.9426 17.5326 48.9175 17.6586 48.8688 17.7761C48.8202 17.8936 48.7488 18.0004 48.6588 18.0904L42.5626 24.1866L38.6876 20.3116Z" fill="#C7483C"/>
<path d="M29 54.2188C40.2355 54.2188 49.3438 45.1105 49.3438 33.875C49.3438 22.6395 40.2355 13.5312 29 13.5312C17.7645 13.5312 8.65625 22.6395 8.65625 33.875C8.65625 45.1105 17.7645 54.2188 29 54.2188Z" fill="#D65246"/>
<path d="M29 50.3438C38.0954 50.3438 45.4688 42.9704 45.4688 33.875C45.4688 24.7796 38.0954 17.4062 29 17.4062C19.9046 17.4062 12.5312 24.7796 12.5312 33.875C12.5312 42.9704 19.9046 50.3438 29 50.3438Z" fill="#2C86D1"/>
<path d="M29 47.4375C36.4904 47.4375 42.5625 41.3654 42.5625 33.875C42.5625 26.3846 36.4904 20.3125 29 20.3125C21.5096 20.3125 15.4375 26.3846 15.4375 33.875C15.4375 41.3654 21.5096 47.4375 29 47.4375Z" fill="#348ED8"/>
<path d="M25.125 5.78125H32.875V9.65625H25.125V5.78125Z" fill="#D65246"/>
<path d="M28.0312 43.5625H29.9688V47.4375H28.0312V43.5625ZM28.0312 20.3125H29.9688V24.1875H28.0312V20.3125ZM33.004 42.7479L34.6818 41.7792L36.6193 45.1349L34.9415 46.1037L33.004 42.7479ZM21.3791 22.6133L23.057 21.6445L24.9945 25.0003L23.3166 25.969L21.3791 22.6133ZM36.9043 39.5584L37.8729 37.8805L41.2287 39.818L40.2599 41.4959L36.9043 39.5584ZM16.7694 27.9329L17.7382 26.2552L21.0939 28.1927L20.1252 29.8706L16.7694 27.9329ZM38.6875 32.9062H42.5625V34.8438H38.6875V32.9062ZM15.4375 32.9062H19.3125V34.8438H15.4375V32.9062ZM16.7689 39.8174L20.1247 37.8799L21.0934 39.5577L17.7377 41.4952L16.7689 39.8174ZM33.0042 25.0019L34.9417 21.6461L36.6196 22.6149L34.6821 25.9706L33.0042 25.0019ZM21.3786 45.1367L23.3161 41.781L24.994 42.7497L23.0565 46.1055L21.3786 45.1367Z" fill="#FFB431"/>
<path d="M29 36.7812C30.6051 36.7812 31.9062 35.4801 31.9062 33.875C31.9062 32.2699 30.6051 30.9688 29 30.9688C27.3949 30.9688 26.0938 32.2699 26.0938 33.875C26.0938 35.4801 27.3949 36.7812 29 36.7812Z" fill="#FFB431"/>
<path d="M30.1836 32.0718L40.1505 26.2578L41.127 27.9318L31.1601 33.7458L30.1836 32.0718Z" fill="#FFB431"/>
<path d="M11.5625 19.3438H5.75C3.07487 19.3438 0.90625 21.5124 0.90625 24.1875C0.90625 26.8626 3.07487 29.0312 5.75 29.0312H11.5625C14.2376 29.0312 16.4062 26.8626 16.4062 24.1875C16.4062 21.5124 14.2376 19.3438 11.5625 19.3438Z" fill="#FDC8A2"/>
<path d="M11.5625 29.0312H5.75C3.07487 29.0312 0.90625 31.1999 0.90625 33.875C0.90625 36.5501 3.07487 38.7188 5.75 38.7188H11.5625C14.2376 38.7188 16.4062 36.5501 16.4062 33.875C16.4062 31.1999 14.2376 29.0312 11.5625 29.0312Z" fill="#FDC8A2"/>
<path d="M14.4688 38.7188H8.65625C5.98112 38.7188 3.8125 40.8874 3.8125 43.5625C3.8125 46.2376 5.98112 48.4062 8.65625 48.4062H14.4688C17.1439 48.4062 19.3125 46.2376 19.3125 43.5625C19.3125 40.8874 17.1439 38.7188 14.4688 38.7188Z" fill="#FDC8A2"/>
<path d="M16.4062 48.4062H10.5938C7.91862 48.4062 5.75 50.5749 5.75 53.25C5.75 55.9251 7.91862 58.0938 10.5938 58.0938H16.4062C19.0814 58.0938 21.25 55.9251 21.25 53.25C21.25 50.5749 19.0814 48.4062 16.4062 48.4062Z" fill="#FDC8A2"/>
<path d="M11.5625 28.0625H5.75C5.21497 28.0625 4.78125 28.4962 4.78125 29.0312C4.78125 29.5663 5.21497 30 5.75 30H11.5625C12.0975 30 12.5312 29.5663 12.5312 29.0312C12.5312 28.4962 12.0975 28.0625 11.5625 28.0625Z" fill="#FDB683"/>
<path d="M11.6923 37.75H7.55769C7.09436 37.75 6.71875 38.1256 6.71875 38.5889V38.8486C6.71875 39.3119 7.09436 39.6875 7.55769 39.6875H11.6923C12.1556 39.6875 12.5312 39.3119 12.5312 38.8486V38.5889C12.5312 38.1256 12.1556 37.75 11.6923 37.75Z" fill="#FDB683"/>
<path d="M14.5986 47.4375H10.4639C10.0006 47.4375 9.625 47.8131 9.625 48.2764V48.5361C9.625 48.9994 10.0006 49.375 10.4639 49.375H14.5986C15.0619 49.375 15.4375 48.9994 15.4375 48.5361V48.2764C15.4375 47.8131 15.0619 47.4375 14.5986 47.4375Z" fill="#FDB683"/>
</svg>
